
<svg xmlns="http://www.w3.org/2000/svg">
<!-- Master Logo -->
  <symbol id="hunter" viewBox="0 0 256 256" style="fill-rule:evenodd;clip-rule:evenodd;stroke-linecap:round;stroke-linejoin:round;stroke-miterlimit:1.5;">
    <g transform="matrix(1.40283,0,0,1.40283,-433.131,-277.261)">
        <path d="M349.224,345.645C349.224,319.459 349.224,270.444 349.224,270.444C349.224,242.42 371.976,219.668 400,219.668C428.024,219.668 450.776,242.42 450.776,270.444L450.776,345.914C450.776,348.593 449.172,351.011 446.704,352.053C444.236,353.095 441.385,352.557 439.466,350.689C436.341,347.647 433.112,344.503 430.562,342.021C427.792,339.324 423.411,339.223 420.52,341.789C415.756,346.016 408.724,352.257 404.111,356.351C401.447,358.715 397.432,358.694 394.793,356.303C390.33,352.258 383.591,346.153 378.949,341.946C376.037,339.308 371.569,339.415 368.786,342.189C366.415,344.555 363.47,347.492 360.592,350.362C358.685,352.264 355.82,352.831 353.333,351.799C350.845,350.766 349.224,348.338 349.224,345.645Z" style="fill:none;stroke:white;stroke-width:12.4px;"/>
    </g>
    <g transform="matrix(1.40283,0,0,1.40283,-433.131,-277.261)">
        <path d="M382.76,261.405C387.274,261.405 390.939,265.069 390.939,269.584C390.939,274.098 387.274,277.763 382.76,277.763C378.246,277.763 374.581,274.098 374.581,269.584C374.581,265.069 378.246,261.405 382.76,261.405ZM416.223,261.405C420.737,261.405 424.402,265.069 424.402,269.584C424.402,274.098 420.737,277.763 416.223,277.763C411.709,277.763 408.044,274.098 408.044,269.584C408.044,265.069 411.709,261.405 416.223,261.405Z" style="fill:white;"/>
    </g>
  </symbol>
  <symbol id="hunter2" viewBox="0 0 256 256" style="fill-rule:evenodd;clip-rule:evenodd;stroke-linejoin:round;stroke-miterlimit:2;">
    <path d="M48.073,207.62C48.073,214.913 52.462,221.488 59.2,224.286C65.937,227.081 73.696,225.546 78.86,220.395C82.898,216.369 87.03,212.248 90.357,208.929C90.977,208.31 91.978,208.286 92.631,208.877C99.141,214.777 108.595,223.342 114.856,229.016C121.848,235.351 132.484,235.407 139.541,229.144C146.012,223.401 155.877,214.646 162.56,208.717C163.207,208.142 164.187,208.165 164.807,208.768C168.385,212.251 172.915,216.661 177.298,220.928C182.496,225.988 190.217,227.444 196.902,224.622C203.585,221.8 207.929,215.252 207.929,207.998L207.929,102.126C207.929,58.013 172.114,22.198 128.001,22.198C83.888,22.198 48.073,58.013 48.073,102.126L48.073,207.62ZM103.816,89.446C110.149,89.446 115.29,94.586 115.29,100.92C115.29,107.252 110.149,112.393 103.816,112.393C97.484,112.393 92.342,107.252 92.342,100.92C92.342,94.586 97.484,89.446 103.816,89.446ZM150.759,89.446C157.091,89.446 162.233,94.586 162.233,100.92C162.233,107.252 157.091,112.393 150.759,112.393C144.427,112.393 139.285,107.252 139.285,100.92C139.285,94.586 144.427,89.446 150.759,89.446Z" style="fill:white;"/>
  </symbol>
</svg>

